<svg width="346" height="348" viewBox="0 0 346 348" fill="none" xmlns="http://www.w3.org/2000/svg">
<g clip-path="url(#clip0_225_28)">
<path d="M239.629 1.08752C220.598 3.94221 202.994 12.9821 188.924 27.1196C181.448 34.5281 174.447 44.2477 170.845 52.0641L169.077 55.9383L167.786 54.307C159.222 43.5 156.027 40.7813 151.609 40.7813C148.211 40.7813 144.337 43.1602 142.773 46.2188C140.259 51.1805 141.21 54.8508 146.58 60.6281C153.241 67.7649 158.338 78.0281 160.513 88.6992C161.465 93.3211 161.805 97.807 161.805 107.187C161.805 114.052 161.601 119.625 161.397 119.625C161.125 119.625 157.319 117.654 152.969 115.207C141.482 108.818 135.297 106.099 127.888 104.264C105.663 98.5547 87.5828 104.06 69.6391 121.936C55.7055 135.938 45.918 154.357 41.3641 175.359C40.0727 181.409 39.8688 184.467 39.8688 195.75C39.8688 217.704 44.0149 238.638 53.3946 264.738C57.1328 275.273 66.2406 294.169 71.7461 303.141C91.7289 335.358 115.926 351.466 138.084 347.32C144.405 346.165 150.658 342.495 157.998 335.698C165.203 329.037 167.65 327.609 172 327.609C176.35 327.609 179.069 329.173 186.138 335.766C197.964 346.845 208.023 349.971 221.821 346.913C253.291 339.844 284.624 295.46 298.83 237.687C308.005 200.236 305.83 168.97 292.305 142.123C282.313 122.276 268.38 109.905 249.824 104.264C244.319 102.633 242.688 102.429 233.172 102.429C223.928 102.429 221.821 102.633 216.112 104.128C208.635 106.167 202.382 108.886 191.031 115.207C186.681 117.654 182.875 119.625 182.603 119.625C182.399 119.625 182.195 115.411 182.195 110.245V100.866L187.769 99.982C199.052 98.2149 212.781 92.7774 222.977 85.9805C246.834 70.0758 261.787 44.1117 263.486 15.4289C263.894 9.1758 263.826 8.15627 262.466 5.57346C259.68 0.0679882 253.834 -1.08748 239.629 1.08752Z" fill="#CFFAFE"/>
</g>
<defs>
<clipPath id="clip0_225_28">
<rect width="348" height="348" fill="white" transform="translate(-2)"/>
</clipPath>
</defs>
</svg>
