<svg width="457" height="471" viewBox="0 0 457 471" fill="none" xmlns="http://www.w3.org/2000/svg">
<g clip-path="url(#clip0_194_68)">
<path d="M317.661 393.76C314.303 381.877 311.445 372.048 311.271 371.963C311.039 371.849 310.059 373.255 308.981 375.007C306.327 379.524 301.275 383.649 295.752 385.81C287.646 388.982 269.812 391.458 255.132 391.473C239.543 391.434 216.231 387.358 207.662 383.14C202.451 380.575 196.167 373.468 195.121 369.018C194.755 367.422 194.64 367.365 191.825 368.262C183.705 370.876 176.797 369.128 167.511 362.275C152.016 350.793 137.542 334.46 127.527 317.253C117.284 299.777 115.463 291.64 119.178 280.877L120.363 277.446L117.25 275.442C113.037 272.896 109.283 267.663 107.76 262.428C105.921 255.935 104.679 238.875 105.166 226.051C105.871 205.621 110.924 181.034 117.009 168.525C119.57 163.175 120.305 162.12 123.316 159.51C125.241 157.939 128.056 156.019 129.575 155.271L132.461 153.937L131.731 150.744C131.312 148.964 131.085 145.626 131.241 143.263C131.406 139.567 131.856 138.214 134.471 133.048C141.14 119.645 157.323 101.088 174.463 87.0162C182.73 80.3032 199.571 69.4682 204.314 67.868C209.027 66.3311 215.133 66.3461 219.462 67.926L223.008 69.1988L216.676 47.43L210.317 25.5694L201.333 29.6472C163.019 46.9911 133.247 72.5533 108.012 109.793C103.259 116.819 100.813 121.203 94.2072 134.479C85.8547 151.302 83.9525 156.19 79.1142 172.303C62.6926 227.732 68.7142 287.833 95.6348 335.87C132.803 402.25 205.324 437.867 280.686 426.795C293.482 424.909 303.183 422.443 320.38 416.584L323.672 415.45L317.661 393.76Z" fill="#FEF9C3"/>
<path d="M299.847 360.831C300.16 357.128 273.955 266.867 271.35 262.515C267.76 256.656 262.242 255.593 256.923 259.822C254.491 261.694 254.086 262.518 231.211 308.553C205.561 360.227 206.158 358.868 208.153 364.021C209.601 367.803 212.357 369.947 217.626 371.517C238.417 377.501 259.907 378.555 281.772 374.758C292.484 372.868 295.941 371.107 298.279 366.355C299.001 364.743 299.718 362.263 299.847 360.831Z" fill="#FEF9C3"/>
<path d="M267.144 220.937C259.236 193.749 259.044 193.261 256.892 197.633C255.676 200.104 250.518 204.884 246.937 206.899L243.597 208.718L244.015 213.567C244.5 219.157 244.121 223.142 242.459 227.833L241.31 231.045L244.481 233.078C248.115 235.339 251.438 239.257 253.165 243.491L254.403 246.383L258.332 245.562C263.53 244.5 266.843 244.636 271.262 246.181L274.838 247.39L267.144 220.937Z" fill="#FEF9C3"/>
<path d="M241.825 252.941C241.981 247.509 238.761 243.091 233.8 242.066C231.23 241.588 138.798 277.548 135.547 280.355C130.219 284.894 129.524 290.691 133.287 298.682C143.641 320.463 162.493 342.806 179.284 353.117C182.659 355.172 183.532 355.444 186.445 355.225C188.739 355.095 190.641 354.3 192.503 352.855L195.175 350.786L218.438 303.525C241.482 256.707 241.7 256.264 241.825 252.941Z" fill="#FEF9C3"/>
<path d="M248.413 185.196C248.792 183.257 245.72 171.671 235.634 136.486C228.291 111.071 221.559 88.9479 220.668 87.2502C217.154 80.7987 210.723 79.8367 202.509 84.6872C181.753 96.9006 164.858 112.667 149.86 133.932C145.606 139.945 144.701 142.805 145.574 147.17C146.723 153.165 144.01 151.516 191.777 175.027C233.754 195.688 235.001 196.223 237.852 196.131C243.379 195.861 247.13 192.041 248.413 185.196Z" fill="#FEF9C3"/>
<path d="M231.949 217.623C231.842 216.232 231 213.851 230.074 212.371L228.364 209.562L185.808 188.616C162.416 177.102 142.463 167.518 141.439 167.407C138.575 166.942 133.974 168.691 131.346 171.254C129.23 173.36 128.794 174.247 127.279 178.932C122 195.064 119.268 211.428 118.924 228.494C118.656 238.829 119.986 254.831 121.322 258.4C123.21 263.186 127.749 265.656 133.321 264.857C134.737 264.61 156.019 256.59 180.637 246.907C211.401 234.818 226.051 228.729 227.467 227.458C230.274 224.826 232.185 220.651 231.949 217.623Z" fill="#FEF9C3"/>
</g>
<defs>
<clipPath id="clip0_194_68">
<rect width="361.53" height="330.409" fill="white" transform="translate(456.1 146.545) rotate(116.207)"/>
</clipPath>
</defs>
</svg>
