<svg width="520" height="469" viewBox="0 0 520 469" fill="none" xmlns="http://www.w3.org/2000/svg">
<g clip-path="url(#clip0_194_76)">
<path d="M383.991 50.5666C400.176 56.1542 413.464 68.2022 414.496 78.2409C415.069 83.1795 412.504 89.2428 405.875 98.8899C396.599 112.253 384.979 121.657 372.68 125.657C358.315 130.232 337.166 127.1 315.745 117.1L308.887 113.871L303.255 116.581C297.711 119.304 297.595 119.466 296.95 123.585C296.333 127.529 296.453 127.907 298.576 128.688C311.748 133.445 322.331 143.274 325.863 153.973C328.104 160.879 329.262 171.835 330.456 196.895C332.992 251.796 335.822 265.259 351.554 298.97C374.2 347.593 378.044 367.769 371.433 403.1C368.401 419.596 365.124 429.05 358.728 440.08C345.189 463.461 323.493 480.446 299.155 486.781C282.221 491.133 266.25 491.056 242.839 486.312C224.295 482.6 225.171 482.737 205.591 480.479C180.097 477.564 164.235 472.207 148.435 461.292C126.717 446.307 113.763 425.243 109.07 397.301C106.873 384.386 106.983 373.359 109.44 357.67C114.573 324.892 124.508 307.322 159.446 269.424C185.205 241.402 191.786 229.772 211.086 178.201C223.735 144.444 227.518 137.494 236.687 131.118C244.134 125.999 251.883 123.531 262.204 122.992C265.455 122.873 265.812 120.594 264.452 109.786C262.108 90.9216 255.162 75.6466 240.334 56.8027C235.904 51.2602 234.838 46.6035 236.639 41.4083C239.065 34.5151 244.991 30.5045 252.504 30.6934C258.776 30.7777 263.07 34.3235 272.162 46.7918C279.835 57.4217 286.21 69.4645 290.172 80.86C292.066 86.5441 292.214 86.7468 294.348 85.7342C295.698 85.1375 297.83 82.4185 299.85 78.6941C306.587 66.6394 318.486 56.0218 331.153 50.8221C346.115 44.7249 366.956 44.6663 383.991 50.5666Z" fill="#CFFAFE"/>
</g>
<defs>
<clipPath id="clip0_194_76">
<rect width="454.201" height="454.201" fill="white" transform="matrix(-0.987958 -0.15472 -0.15472 0.987958 519.005 70.2739)"/>
</clipPath>
</defs>
</svg>
