<svg width="322" height="393" viewBox="0 0 322 393" fill="none" xmlns="http://www.w3.org/2000/svg">
<g clip-path="url(#clip0_225_31)">
<path d="M124.982 86.4234C123.811 92.0534 125.499 95.852 131.874 101.779L136.792 106.4L145.339 105.773C164.459 104.418 182.214 107.242 199.298 114.408L205.556 116.96L209.49 111.729C220.768 96.6792 234.504 85.3181 251.759 76.7552L259.441 72.957L261.366 66.4199C264.352 56.2368 262.876 51.3783 255.576 47.2063C250.175 44.1197 246.411 44.6452 239.322 49.3337C233.471 53.2337 225.586 60.1437 222.389 64.2219C221.236 65.6887 220.227 66.7655 220.049 66.6637C219.93 66.5959 219.124 65.112 218.302 63.3823C212.885 52.334 197.072 33.8491 189.001 29.2362C183.6 26.1496 178.377 27.5738 175.29 32.9747C173.357 36.3577 169.786 48.8046 168.54 56.3593C167.556 62.4895 167.046 72.749 167.377 77.2683C167.546 79.176 167.606 80.8633 167.538 80.982C167.47 81.1007 166.173 80.753 164.613 80.1764C159.695 78.3108 148.791 76.1736 142.135 75.8341C134.165 75.4521 130.629 76.8171 127.458 81.5397C126.296 83.1591 125.16 85.4229 124.982 86.4234Z" fill="#FEF9C3"/>
<path d="M107.742 141.527C106.368 145.86 108.089 150.701 111.709 152.77C112.955 153.483 116.695 155.069 119.967 156.23C136.806 162.311 151.907 175.979 159.969 192.319L162.386 197.321L167.575 192.65C196.362 166.663 237.748 155.278 275.878 162.818C279.965 163.657 283.365 164.183 283.339 164.09C283.348 163.937 283.195 161.173 283.009 157.917C282.568 149.871 283.332 142.197 285.291 134.498C287.547 125.867 293.423 114.344 299.232 107.35C301.462 104.687 303.844 101.482 304.523 100.295C307.067 95.844 305.278 90.0189 300.589 87.3393C297.325 85.4738 295.307 85.4228 286.192 86.9062C269.166 89.6949 252.267 97.9102 238.989 109.848C230.094 117.835 225.651 123.405 219.002 135.038L213.296 145.161L202.816 139.251C194.744 134.638 190.836 132.798 185.723 131.136C164.195 124.029 141.709 124.249 121.605 131.735C111.506 135.49 109.149 137.135 107.742 141.527Z" fill="#FEF9C3"/>
<path d="M153.226 248.067C152.335 250.314 151.657 252.603 151.657 253.155C151.682 253.799 156.702 256.038 170.7 261.439C181.129 265.51 189.76 268.868 189.854 268.842C190.261 268.681 218.641 232.384 218.599 232.045C218.438 231.638 179.215 216.23 176.137 215.416C174.357 214.95 173.823 215.195 171.313 217.934C167.76 221.809 155.405 242.463 153.226 248.067Z" fill="#FEF9C3"/>
<path d="M146.051 282.39C145.745 291.742 146.55 300.39 148.602 310.302C150.06 317.12 150.458 318.213 151.357 317.467C152.798 316.323 176.295 286.368 176.108 285.868C175.964 285.155 147.264 274.343 146.78 274.776C146.517 275.098 146.178 278.447 146.051 282.39Z" fill="#FEF9C3"/>
<path d="M193.707 200.104C194.699 200.435 203.661 203.903 213.581 207.761C223.467 211.679 231.87 214.749 232.209 214.707C232.522 214.571 238.204 207.661 244.733 199.267C251.321 190.907 257.282 183.37 257.969 182.581L259.275 181.123L255.519 180.945C249.66 180.588 237.815 181.614 230.387 183.038C219.399 185.182 203.924 191.456 194.639 197.645L191.841 199.51L193.707 200.104Z" fill="#FEF9C3"/>
<path d="M168.255 330.746C170.129 331.738 210.75 347.316 211.251 347.13C211.904 346.952 240.132 311.197 240.039 310.672C239.903 310.358 197.051 293.584 196.619 293.652C196.525 293.678 190.497 301.334 183.187 310.542C175.903 319.843 169.417 328.024 168.73 328.813C167.848 329.805 167.721 330.441 168.255 330.746Z" fill="#FEF9C3"/>
<path d="M161.665 358.947C164.988 370.215 168.168 378.016 172.746 385.987L176.061 391.897L177.426 390.472C179.775 387.878 197.65 364.867 197.548 364.494C197.446 364.121 161.157 349.917 159.614 349.586C159.19 349.501 160.088 353.715 161.665 358.947Z" fill="#FEF9C3"/>
<path d="M210.262 276.805C211.152 277.314 253.419 293.596 253.639 293.485C254.165 293.392 282.597 257.282 282.495 256.909C282.334 256.502 239.66 239.83 239.101 239.983C238.787 240.118 210.974 275.008 210.296 276.195C210.126 276.491 210.143 276.737 210.262 276.805Z" fill="#FEF9C3"/>
<path d="M254.245 223.678C255.296 224.043 265.038 227.8 276.069 232.057C287.007 236.339 296.122 239.816 296.181 239.85C296.215 239.79 302.006 232.55 308.926 223.749C317.982 212.311 321.433 207.512 321.128 206.944C318.567 202.332 286.569 184.753 282.261 185.677C281.549 185.821 254.601 219.473 253.083 221.991C252.575 222.881 252.804 223.17 254.245 223.678Z" fill="#FEF9C3"/>
<path d="M193.399 411.569C201.352 418.869 212.527 426.043 222.346 430.08C225.245 431.343 227.764 432.31 227.857 432.284C228.357 432.098 260.503 390.866 260.825 390.027C261.156 389.035 258.765 387.983 239.611 380.58L218.033 372.185L204.728 388.99C197.385 398.257 191.085 406.388 190.678 407.1C190.008 408.134 190.339 408.796 193.399 411.569Z" fill="#FEF9C3"/>
<path d="M232.693 355.762C233.499 356.144 243.173 360.019 254.323 364.344C269.042 370 274.841 371.976 275.537 371.586C276.647 370.882 304.062 336.001 303.875 335.501C303.799 335.221 260.862 318.321 260.489 318.422C260.43 318.388 254.333 326.163 246.922 335.549C239.511 344.935 232.99 353.176 232.465 353.821C231.583 354.813 231.625 355.152 232.693 355.762Z" fill="#FEF9C3"/>
<path d="M274.582 301.753C276.456 302.746 316.984 318.349 317.451 318.222C318.104 318.044 346.459 282.204 346.332 281.738C346.289 281.399 303.378 264.592 302.912 264.719C302.819 264.744 296.832 272.188 289.65 281.311C282.561 290.409 276.041 298.65 275.286 299.557C274.268 300.787 274.048 301.448 274.582 301.753Z" fill="#FEF9C3"/>
<path d="M318.353 248.584C319.523 249.017 327.705 252.197 336.574 255.69C345.383 259.15 353.303 262.101 354.032 262.203C355.185 262.39 355.007 261.186 352.692 254.352C351.133 249.917 348.437 243.337 346.622 239.623C342.654 231.687 336.872 222.792 335.872 223.165C335.278 223.377 317.539 245.6 316.556 247.321C316.42 247.558 317.242 248.186 318.353 248.584Z" fill="#FEF9C3"/>
<path d="M254.701 438.492C279.247 440.868 306.482 433.441 326.425 418.935C329.74 416.578 330.071 416.137 329.181 415.628C326.273 413.966 282.98 397.413 282.107 397.701C281.174 397.956 252.615 433.6 250.783 436.805C250.071 438.051 250.131 438.085 254.701 438.492Z" fill="#FEF9C3"/>
<path d="M296.657 380.507C297.844 381.185 346.029 400.062 346.402 399.96C346.495 399.935 348.31 397.586 350.489 394.737C355.484 388.065 362.149 375.024 364.871 366.817C365.948 363.417 366.821 360.373 366.745 360.093C366.635 359.873 357.088 355.912 345.489 351.41L324.36 343.192L318.136 351.052C295.157 379.964 295.352 379.761 296.657 380.507Z" fill="#FEF9C3"/>
</g>
<defs>
<clipPath id="clip0_225_31">
<rect width="350" height="350" fill="white" transform="translate(0 303.877) rotate(-60.2523)"/>
</clipPath>
</defs>
</svg>
